<svg width="135" height="141" viewBox="0 0 135 141" fill="none" xmlns="http://www.w3.org/2000/svg">
<rect x="6" y="27" width="126" height="22" rx="11" fill="#3B65F5"/>
<rect x="5" y="87" width="126" height="22" rx="11" fill="#5552F3"/>
<path d="M63 87H120C126.075 87 131 91.9249 131 98V98C131 104.075 126.075 109 120 109H63V87Z" fill="#7AE091"/>
<rect x="25.4062" y="132.231" width="126" height="22" rx="11" transform="rotate(-90.0554 25.4062 132.231)" fill="#7AE091"/>
<rect x="87.1221" y="132.021" width="126" height="22" rx="11" transform="rotate(-90.0554 87.1221 132.021)" fill="#5552F3"/>
<path d="M87.1035 70.6448L87.0519 17.2524C87.046 11.1773 91.9661 6.24766 98.0412 6.24179V6.24179C104.116 6.23592 109.046 11.156 109.052 17.2312L109.104 70.6235L87.1035 70.6448Z" fill="#7AE091"/>
</svg>
